<?xml version="1.0" standalone="no"?>
<!DOCTYPE svg PUBLIC "-//W3C//DTD SVG 20010904//EN"
 "http://www.w3.org/TR/2001/REC-SVG-20010904/DTD/svg10.dtd">
<svg version="1.0" xmlns="http://www.w3.org/2000/svg"
 width="991.000000pt" height="729.000000pt" viewBox="0 0 991.000000 729.000000"
 preserveAspectRatio="xMidYMid meet">
<metadata>
Created by potrace 1.16, written by Peter Selinger 2001-2019
</metadata>
<g transform="translate(0.000000,729.000000) scale(0.100000,-0.100000)"
fill="#000000" stroke="none">
<path d="M457 6443 c-4 -3 -7 -1139 -7 -2524 0 -2286 1 -2517 16 -2523 21 -8
2407 -8 2511 1 l83 6 0 33 0 34 -1265 0 -1265 0 0 2450 0 2450 3688 1 c2028 1
3743 2 3812 2 69 1 394 0 723 -1 l597 -2 0 -2450 0 -2450 -1037 -2 -1038 -3
-3 -31 c-3 -26 1 -33 20 -38 34 -9 2111 -7 2126 2 10 7 12 519 10 2528 l-3
2519 -4481 3 c-2464 1 -4484 -1 -4487 -5z"/>
<path d="M3575 4720 c-9 -14 -37 -362 -30 -378 3 -9 19 -12 47 -10 l41 3 23
67 c50 148 114 198 256 198 l69 0 -3 -440 -3 -440 -26 -25 c-17 -18 -42 -28
-75 -33 -48 -7 -49 -8 -52 -46 -2 -22 2 -42 8 -46 15 -9 418 -11 495 -2 l60 7
0 40 0 40 -49 7 c-33 5 -58 15 -75 33 l-26 25 -3 441 -3 441 89 -4 c70 -3 96
-9 126 -28 47 -29 91 -96 112 -172 13 -46 22 -60 40 -64 40 -10 74 3 74 29 0
50 -30 348 -35 357 -9 14 -46 12 -75 -5 -21 -12 -101 -14 -455 -14 -354 0
-434 2 -455 14 -30 17 -66 19 -75 5z"/>
<path d="M1837 4693 c-4 -3 -7 -25 -7 -49 0 -44 10 -54 56 -54 40 0 81 -27 93
-61 14 -40 15 -766 1 -803 -12 -33 -47 -55 -101 -64 l-44 -8 0 -43 0 -44 265
-2 c146 -1 275 2 288 6 38 14 27 89 -14 89 -37 0 -98 28 -114 53 -13 18 -15
81 -15 382 -1 198 2 379 6 403 8 56 35 82 95 93 56 11 65 21 62 69 l-3 35
-281 3 c-154 1 -283 -1 -287 -5z"/>
<path d="M2655 4258 c-77 -34 -143 -66 -148 -72 -17 -25 -1 -52 51 -79 l52
-28 0 -188 c0 -207 -3 -218 -60 -230 -31 -6 -35 -10 -38 -43 -2 -27 1 -39 15
-45 10 -5 106 -7 213 -4 l195 6 3 28 c4 33 -13 57 -39 57 -11 0 -28 9 -39 20
-18 18 -20 33 -20 193 0 194 8 223 69 264 45 31 127 32 164 3 39 -31 47 -77
47 -261 0 -152 -2 -169 -20 -192 -11 -14 -33 -27 -48 -29 -24 -3 -27 -8 -30
-45 -2 -24 -2 -43 0 -44 14 -5 370 -8 395 -4 24 4 35 13 39 30 8 32 -12 65
-40 65 -13 0 -31 9 -42 21 -17 19 -20 43 -24 243 -6 216 -6 222 -33 273 -32
63 -80 98 -156 114 -100 21 -203 -7 -279 -76 l-41 -36 -3 58 c-3 50 -6 58 -23
60 -11 1 -83 -26 -160 -59z"/>
<path d="M5055 4300 c-117 -39 -206 -129 -246 -249 -17 -51 -21 -80 -17 -150
6 -116 40 -193 117 -262 80 -71 141 -92 272 -93 102 -1 107 0 180 36 71 35
169 121 169 147 0 5 -14 19 -31 32 l-30 21 -44 -31 c-58 -42 -116 -61 -182
-61 -113 0 -183 69 -204 202 -8 48 -7 63 3 69 7 5 123 9 257 9 l244 0 -7 52
c-15 114 -83 211 -183 260 -86 42 -204 49 -298 18z m198 -82 c34 -13 54 -49
59 -108 l3 -45 -142 -3 c-137 -2 -143 -2 -143 18 0 37 32 100 62 121 53 38 93
42 161 17z"/>
<path d="M5940 4302 c-155 -41 -250 -140 -226 -236 14 -57 132 -74 180 -27 17
18 21 34 21 89 l0 67 40 13 c49 17 118 17 155 2 37 -15 50 -48 50 -128 l0 -67
-96 -28 c-197 -57 -311 -126 -351 -213 -28 -62 -26 -97 7 -152 56 -91 249
-105 388 -27 50 28 67 31 79 12 14 -23 68 -55 104 -62 54 -10 111 10 173 61
60 48 69 74 35 98 -16 11 -28 12 -50 4 -55 -19 -57 -11 -61 240 -4 260 -7 273
-83 317 -94 56 -238 70 -365 37z m230 -467 c0 -40 -3 -81 -6 -90 -9 -24 -118
-75 -159 -75 -101 0 -101 128 1 191 40 24 145 59 157 52 4 -2 7 -37 7 -78z"/>
<path d="M6730 4257 c-121 -52 -146 -67 -148 -86 -4 -29 18 -53 69 -76 l40
-19 -3 -187 c-3 -165 -5 -189 -22 -207 -10 -12 -30 -22 -45 -24 -22 -3 -26 -8
-29 -42 -2 -24 2 -42 10 -47 22 -14 392 -11 406 3 27 27 11 88 -23 88 -13 0
-33 9 -46 19 -24 19 -24 22 -24 198 0 160 2 181 20 212 52 88 210 97 244 14
21 -53 20 -387 -2 -417 -7 -10 -29 -21 -47 -25 -32 -6 -35 -10 -38 -45 -2 -22
1 -42 7 -45 8 -5 361 -6 424 -2 5 1 7 20 5 43 -3 39 -5 43 -38 49 -56 12 -60
24 -60 209 0 152 2 169 23 210 27 54 72 80 139 80 39 0 54 -6 80 -29 l33 -29
3 -199 c3 -220 1 -230 -58 -242 -32 -6 -35 -10 -38 -45 -2 -24 2 -42 9 -47 19
-11 408 -4 420 8 6 6 9 25 7 44 -3 29 -7 34 -37 40 -65 13 -65 16 -71 262 -5
218 -6 223 -33 274 -33 64 -82 99 -160 113 -104 20 -206 -11 -285 -84 -27 -25
-51 -46 -54 -46 -3 0 -17 17 -30 38 -15 21 -48 50 -79 67 -46 25 -65 29 -129
29 -89 0 -155 -25 -212 -82 l-38 -36 0 62 c0 58 -2 62 -22 62 -13 0 -88 -29
-168 -63z"/>
<path d="M4280 2046 c-267 -310 -485 -570 -485 -579 0 -12 323 -367 661 -727
39 -41 135 -145 214 -230 79 -85 146 -156 150 -158 4 -1 29 23 56 54 206 241
288 334 294 334 4 0 17 -8 28 -17 25 -22 249 -268 347 -381 39 -44 73 -81 77
-81 7 -1 72 72 722 817 l308 354 -34 36 c-19 21 -137 150 -263 287 -126 138
-248 270 -271 295 -40 44 -191 208 -388 423 -88 96 -101 106 -116 95 -10 -7
-95 -102 -190 -210 -94 -109 -175 -198 -180 -198 -11 0 1 -12 -230 238 -107
117 -199 212 -205 212 -5 -1 -228 -255 -495 -564z m687 263 c98 -104 181 -196
185 -204 5 -9 -82 -116 -270 -331 -153 -176 -285 -330 -294 -343 -17 -24 -16
-25 104 -155 178 -194 401 -439 416 -458 12 -15 -3 -37 -134 -188 -81 -93
-150 -170 -154 -170 -7 0 -169 173 -708 754 -151 163 -229 254 -224 262 4 7
86 104 182 216 96 111 264 306 374 433 265 308 326 375 336 375 5 0 89 -86
187 -191z m709 79 c87 -92 805 -874 849 -926 24 -29 26 -35 13 -50 -149 -174
-901 -1032 -907 -1037 -5 -3 -76 68 -158 157 -81 89 -170 186 -197 216 -47 51
-49 55 -35 77 13 21 75 94 437 512 73 85 132 158 130 163 -2 5 -75 87 -163
182 -311 335 -375 407 -375 417 0 6 48 66 108 134 59 67 129 148 156 180 27
31 52 57 55 57 4 0 43 -37 87 -82z m-276 -545 c269 -286 310 -332 310 -347 0
-7 -93 -121 -206 -252 -113 -132 -231 -269 -262 -306 -32 -37 -62 -67 -68 -67
-15 -1 -499 525 -499 543 0 18 522 616 538 616 7 0 91 -84 187 -187z"/>
</g>
</svg>
